<svg width="29" height="28" viewBox="0 0 29 28" fill="none" xmlns="http://www.w3.org/2000/svg">
<path fill-rule="evenodd" clip-rule="evenodd" d="M1.97581 1.97581C0 3.92339 0 7.08468 0 13.4073V14.5645C0 20.8871 0 24.0484 1.97581 26.0242C3.95161 28 7.1129 28 13.4355 28H14.5927C20.9153 28 24.0766 28 26.0524 26.0242C28.0282 24.0484 28.0282 20.8871 28.0282 14.5645V13.4073C28.0282 7.08468 28.0282 3.92339 26.0524 1.94758C24.0766 0 20.9153 0 14.5927 0H13.4073C7.08468 0 3.92339 0 1.97581 1.97581ZM5.53226 8.75H7.56452C8.07258 8.75 8.27016 8.97581 8.46774 9.54032C9.45565 12.4476 11.1492 14.9879 11.8548 14.9879C12.1089 14.9879 12.2218 14.875 12.2218 14.1976V11.2056C12.1653 10.3589 11.8831 9.99194 11.6573 9.70968C11.5444 9.54032 11.4315 9.39919 11.4315 9.22984C11.4315 9.00403 11.629 8.75 11.9395 8.75H15.1573C15.5806 8.75 15.75 8.97581 15.75 9.5121V13.5484C15.75 13.9718 15.9476 14.1411 16.0605 14.1411C16.3145 14.1411 16.5403 14 17.0202 13.5202C18.4879 11.8548 19.5323 9.31452 19.5323 9.31452C19.6734 9.03226 19.8992 8.75 20.4073 8.75H22.4395C23.0605 8.75 23.1734 9.06048 23.0605 9.5121C22.8065 10.6976 20.3226 14.1976 20.3226 14.1976C20.0968 14.5363 20.0121 14.7056 20.3226 15.1008C20.4355 15.2419 20.6613 15.4677 20.9153 15.7218C21.1694 15.9758 21.4798 16.2863 21.7339 16.5685C22.6089 17.5564 23.2863 18.375 23.4556 18.9677C23.625 19.5323 23.3427 19.8427 22.75 19.8427H20.7177C20.1815 19.8427 19.8992 19.5323 19.3065 18.8831C19.0524 18.6008 18.7419 18.2621 18.3185 17.8387C17.1048 16.6532 16.5968 16.5121 16.2863 16.5121C15.8629 16.5121 15.75 16.625 15.75 17.2177V19.0524C15.75 19.5605 15.5806 19.8427 14.2823 19.8427C12.1089 19.8427 9.7379 18.5161 8.04436 16.1169C5.53226 12.5605 4.85484 9.87903 4.85484 9.31452C4.85484 9.03226 4.96774 8.75 5.53226 8.75Z" fill="#D6D6D6"/>
</svg>
